<?xml version="1.0" encoding="UTF-8"?>
<svg width="16px" height="16px" viewBox="0 0 16 16" version="1.1" xmlns="http://www.w3.org/2000/svg" xmlns:xlink="http://www.w3.org/1999/xlink">
    <!-- Generator: Sketch 53.2 (72643) - https://sketchapp.com -->
    <title>building-type-160000-18</title>
    <desc>Created with Sketch.</desc>
    <g id="Page-1" stroke="none" stroke-width="1" fill="none" fill-rule="evenodd">
        <g id="2-6-1-图标" transform="translate(-221.000000, -112.000000)">
            <g id="分组-7" transform="translate(209.000000, 0.000000)">
                <g id="building-type-160000-18" transform="translate(12.000000, 112.000000)">
                    <g id="Group-10">
                        <g id="publicsign/gray">
                            <circle id="Oval" fill="#AFAFAF" cx="8" cy="8" r="7.5"></circle>
                            <path d="M8,15.5 C12.1421356,15.5 15.5,12.1421356 15.5,8 C15.5,3.85786438 12.1421356,0.5 8,0.5 C3.85786438,0.5 0.5,3.85786438 0.5,8 C0.5,12.1421356 3.85786438,15.5 8,15.5 Z M8,16 C3.581722,16 0,12.418278 0,8 C0,3.581722 3.581722,0 8,0 C12.418278,0 16,3.581722 16,8 C16,12.418278 12.418278,16 8,16 Z" id="Oval" fill="#FFFFFF" fill-rule="nonzero"></path>
                        </g>
                        <g id="Group-5" transform="translate(3.000000, 2.500000)" fill="#FFFFFF">
                            <path d="M7,3.33783784 L7,9.5 L5.875,9.5 L5.875,8.02108108 C5.875,7.55891892 5.46695279,7.18918919 5,7.18918919 C4.53304721,7.18918919 4.125,7.55891892 4.125,7.99797297 L4.125,9.5 L3,9.5 L3,3.33783784 L4.875,1.7972973 L4.875,0 L6.75,0 L6.75,1.02702703 L5.125,1.02702703 L5.125,1.7972973 L7,3.33783784 Z M5,5 C5.41666667,5 5.75,4.65714286 5.75,4.25 C5.75,3.84285714 5.41666667,3.5 5,3.5 C4.58333333,3.5 4.25,3.84285714 4.25,4.25 C4.25,4.65714286 4.58333333,5 5,5 Z" id="Shape" fill-rule="nonzero"></path>
                            <path d="M0.25,5 L0,5 L0,4.5 C-1.69088438e-17,4.36192881 0.111928813,4.25 0.25,4.25 L2.75,4.25 L2.75,9.5 L0.25,9.5 L0.25,5 Z M1,5.75 L1,6.75 L2,6.75 L2,5.75 L1,5.75 Z M1,7.75 L1,8.75 L2,8.75 L2,7.75 L1,7.75 Z" id="Rectangle-4"></path>
                            <path d="M9.75,5 L9.75,8.5 C9.75,9.05228475 9.30228475,9.5 8.75,9.5 L7.25,9.5 L7.25,4.25 L9.75,4.25 C9.88807119,4.25 10,4.36192881 10,4.5 L10,5 L9.75,5 Z M8,5.75 L8,6.75 L9,6.75 L9,5.75 L8,5.75 Z M8,7.75 L8,8.75 L9,8.75 L9,7.75 L8,7.75 Z" id="Rectangle-5"></path>
                        </g>
                    </g>
                </g>
            </g>
        </g>
    </g>
</svg>